# xmcd
#
# Track frame offsets:
#	182
#	12965
#	26587
#	40595
#	52257
#	68522
#	83692
#	96367
#	107627
#	119110
#
# Disc length: 1748 seconds
#
# Revision: 1
# Processed by: cddbd v1.5.2PL0 Copyright (c) Steve Scherf et al.
# Submitted via: audiograbber 1.83.01
#
DISCID=7e06d20a
DTITLE=Georges Hamel - Ces Belles Années!
DYEAR=1993
DGENRE=Country
TTITLE0=Ces Belles Années(Georges Hamel-Georges Hamel)
TTITLE1=Ma Tête En Chanson(Denis Champoux-Denis Champoux)
TTITLE2=Une Photo De Son Père(Denis Champoux-Denis Champoux)
TTITLE3=A Toi Maman(Mignonne Ouellet-Mignonne Ouellet)
TTITLE4=La Vallée Du Cowboy(Réjeanne Godin-Réjeanne Godin)
TTITLE5=Si J'étais Perdu(P.Delanoë-C.Lemerle)
TTITLE6=Dis-Moi Oui, Dis-Moi Non(Denis Champoux-Denis Champoux)
TTITLE7=Je Tombe En Amour Encore Une Fois(Denis Champoux-Denis Champoux)
TTITLE8=Mon Amour Reviendra(Denis Champoux-Denis Champoux)
TTITLE9=L'amour Fait Rêver(Georges Hamel-Georges Hamel)
EXTD=
EXTT0=
EXTT1=
EXTT2=
EXTT3=
EXTT4=
EXTT5=
EXTT6=
EXTT7=
EXTT8=
EXTT9=
PLAYORDER=
